<mxfile host="65bd71144e">
    <diagram id="ZoFDhrJX8mDVOkaShU5O" name="Page-1">
        <mxGraphModel dx="1733" dy="761" grid="1" gridSize="10" guides="1" tooltips="1" connect="1" arrows="1" fold="1" page="1" pageScale="1" pageWidth="850" pageHeight="1100" math="0" shadow="0">
            <root>
                <mxCell id="0"/>
                <mxCell id="1" parent="0"/>
                <mxCell id="63" value="" style="childLayout=tableLayout;recursiveResize=0;shadow=0;fillColor=none;direction=west;spacingLeft=5;" vertex="1" parent="1">
                    <mxGeometry x="40" y="40" width="200" height="145" as="geometry"/>
                </mxCell>
                <mxCell id="68" style="shape=tableRow;horizontal=0;startSize=0;swimlaneHead=0;swimlaneBody=0;top=0;left=0;bottom=0;right=0;dropTarget=0;collapsible=0;recursiveResize=0;expand=0;fontStyle=0;fillColor=none;strokeColor=inherit;" vertex="1" parent="63">
                    <mxGeometry width="200" height="21" as="geometry"/>
                </mxCell>
                <mxCell id="69" value="TrainingSession" style="connectable=0;recursiveResize=0;strokeColor=inherit;fillColor=none;align=center;whiteSpace=wrap;html=1;" vertex="1" parent="68">
                    <mxGeometry width="200" height="21" as="geometry">
                        <mxRectangle width="200" height="21" as="alternateBounds"/>
                    </mxGeometry>
                </mxCell>
                <mxCell id="72" style="shape=tableRow;horizontal=0;startSize=0;swimlaneHead=0;swimlaneBody=0;top=0;left=0;bottom=0;right=0;dropTarget=0;collapsible=0;recursiveResize=0;expand=0;fontStyle=0;fillColor=none;strokeColor=inherit;" vertex="1" parent="63">
                    <mxGeometry y="21" width="200" height="79" as="geometry"/>
                </mxCell>
                <mxCell id="73" value="rl_agent: QLearningAI" style="connectable=0;recursiveResize=0;strokeColor=inherit;fillColor=none;align=left;whiteSpace=wrap;html=1;spacingLeft=5;" vertex="1" parent="72">
                    <mxGeometry width="200" height="79" as="geometry">
                        <mxRectangle width="200" height="79" as="alternateBounds"/>
                    </mxGeometry>
                </mxCell>
                <mxCell id="76" style="shape=tableRow;horizontal=0;startSize=0;swimlaneHead=0;swimlaneBody=0;top=0;left=0;bottom=0;right=0;dropTarget=0;collapsible=0;recursiveResize=0;expand=0;fontStyle=0;fillColor=none;strokeColor=inherit;" vertex="1" parent="63">
                    <mxGeometry y="100" width="200" height="45" as="geometry"/>
                </mxCell>
                <mxCell id="77" value="start_training()" style="connectable=0;recursiveResize=0;strokeColor=inherit;fillColor=none;align=left;whiteSpace=wrap;html=1;spacingLeft=5;" vertex="1" parent="76">
                    <mxGeometry width="200" height="45" as="geometry">
                        <mxRectangle width="200" height="45" as="alternateBounds"/>
                    </mxGeometry>
                </mxCell>
                <mxCell id="85" value="" style="childLayout=tableLayout;recursiveResize=0;shadow=0;fillColor=none;direction=west;spacingLeft=5;" vertex="1" parent="1">
                    <mxGeometry x="654" y="290" width="220" height="143" as="geometry"/>
                </mxCell>
                <mxCell id="86" style="shape=tableRow;horizontal=0;startSize=0;swimlaneHead=0;swimlaneBody=0;top=0;left=0;bottom=0;right=0;dropTarget=0;collapsible=0;recursiveResize=0;expand=0;fontStyle=0;fillColor=none;strokeColor=inherit;" vertex="1" parent="85">
                    <mxGeometry width="220" height="30" as="geometry"/>
                </mxCell>
                <mxCell id="87" value="Game" style="connectable=0;recursiveResize=0;strokeColor=inherit;fillColor=none;align=center;whiteSpace=wrap;html=1;" vertex="1" parent="86">
                    <mxGeometry width="220" height="30" as="geometry">
                        <mxRectangle width="220" height="30" as="alternateBounds"/>
                    </mxGeometry>
                </mxCell>
                <mxCell id="88" style="shape=tableRow;horizontal=0;startSize=0;swimlaneHead=0;swimlaneBody=0;top=0;left=0;bottom=0;right=0;dropTarget=0;collapsible=0;recursiveResize=0;expand=0;fontStyle=0;fillColor=none;strokeColor=inherit;" vertex="1" parent="85">
                    <mxGeometry y="30" width="220" height="50" as="geometry"/>
                </mxCell>
                <mxCell id="89" value="&lt;div&gt;players: List[Player]&lt;/div&gt;&lt;div&gt;&lt;br&gt;&lt;/div&gt;" style="connectable=0;recursiveResize=0;strokeColor=inherit;fillColor=none;align=left;whiteSpace=wrap;html=1;spacingLeft=5;" vertex="1" parent="88">
                    <mxGeometry width="220" height="50" as="geometry">
                        <mxRectangle width="220" height="50" as="alternateBounds"/>
                    </mxGeometry>
                </mxCell>
                <mxCell id="90" style="shape=tableRow;horizontal=0;startSize=0;swimlaneHead=0;swimlaneBody=0;top=0;left=0;bottom=0;right=0;dropTarget=0;collapsible=0;recursiveResize=0;expand=0;fontStyle=0;fillColor=none;strokeColor=inherit;" vertex="1" parent="85">
                    <mxGeometry y="80" width="220" height="63" as="geometry"/>
                </mxCell>
                <mxCell id="91" value="start_training()" style="connectable=0;recursiveResize=0;strokeColor=inherit;fillColor=none;align=left;whiteSpace=wrap;html=1;spacingLeft=5;" vertex="1" parent="90">
                    <mxGeometry width="220" height="63" as="geometry">
                        <mxRectangle width="220" height="63" as="alternateBounds"/>
                    </mxGeometry>
                </mxCell>
                <mxCell id="100" value="" style="childLayout=tableLayout;recursiveResize=0;shadow=0;fillColor=none;direction=west;spacingLeft=5;" vertex="1" parent="1">
                    <mxGeometry x="290" y="210" width="220" height="174" as="geometry"/>
                </mxCell>
                <mxCell id="101" style="shape=tableRow;horizontal=0;startSize=0;swimlaneHead=0;swimlaneBody=0;top=0;left=0;bottom=0;right=0;dropTarget=0;collapsible=0;recursiveResize=0;expand=0;fontStyle=0;fillColor=none;strokeColor=inherit;" vertex="1" parent="100">
                    <mxGeometry width="220" height="30" as="geometry"/>
                </mxCell>
                <mxCell id="102" value="QLearningAI" style="connectable=0;recursiveResize=0;strokeColor=inherit;fillColor=none;align=center;whiteSpace=wrap;html=1;" vertex="1" parent="101">
                    <mxGeometry width="220" height="30" as="geometry">
                        <mxRectangle width="220" height="30" as="alternateBounds"/>
                    </mxGeometry>
                </mxCell>
                <mxCell id="103" style="shape=tableRow;horizontal=0;startSize=0;swimlaneHead=0;swimlaneBody=0;top=0;left=0;bottom=0;right=0;dropTarget=0;collapsible=0;recursiveResize=0;expand=0;fontStyle=0;fillColor=none;strokeColor=inherit;" vertex="1" parent="100">
                    <mxGeometry y="30" width="220" height="81" as="geometry"/>
                </mxCell>
                <mxCell id="104" value="&lt;div style=&quot;border-color: var(--border-color);&quot;&gt;self.silent: bool&lt;/div&gt;&lt;div style=&quot;border-color: var(--border-color);&quot;&gt;self.n_games: int&lt;/div&gt;&lt;div style=&quot;border-color: var(--border-color);&quot;&gt;self.episode_max_length: int&lt;/div&gt;&lt;div style=&quot;border-color: var(--border-color);&quot;&gt;self.replay_buffer: ReplayBuffer&lt;/div&gt;" style="connectable=0;recursiveResize=0;strokeColor=inherit;fillColor=none;align=left;whiteSpace=wrap;html=1;spacingLeft=5;" vertex="1" parent="103">
                    <mxGeometry width="220" height="81" as="geometry">
                        <mxRectangle width="220" height="81" as="alternateBounds"/>
                    </mxGeometry>
                </mxCell>
                <mxCell id="105" style="shape=tableRow;horizontal=0;startSize=0;swimlaneHead=0;swimlaneBody=0;top=0;left=0;bottom=0;right=0;dropTarget=0;collapsible=0;recursiveResize=0;expand=0;fontStyle=0;fillColor=none;strokeColor=inherit;" vertex="1" parent="100">
                    <mxGeometry y="111" width="220" height="63" as="geometry"/>
                </mxCell>
                <mxCell id="106" value="create_paths() -&amp;gt; List[Dict]&lt;br&gt;update_models()" style="connectable=0;recursiveResize=0;strokeColor=inherit;fillColor=none;align=left;whiteSpace=wrap;html=1;spacingLeft=5;" vertex="1" parent="105">
                    <mxGeometry width="220" height="63" as="geometry">
                        <mxRectangle width="220" height="63" as="alternateBounds"/>
                    </mxGeometry>
                </mxCell>
                <mxCell id="107" value="" style="childLayout=tableLayout;recursiveResize=0;shadow=0;fillColor=none;direction=west;spacingLeft=5;" vertex="1" parent="1">
                    <mxGeometry x="915" y="290" width="150" height="103" as="geometry"/>
                </mxCell>
                <mxCell id="108" style="shape=tableRow;horizontal=0;startSize=0;swimlaneHead=0;swimlaneBody=0;top=0;left=0;bottom=0;right=0;dropTarget=0;collapsible=0;recursiveResize=0;expand=0;fontStyle=0;fillColor=none;strokeColor=inherit;" vertex="1" parent="107">
                    <mxGeometry width="150" height="30" as="geometry"/>
                </mxCell>
                <mxCell id="109" value="Player" style="connectable=0;recursiveResize=0;strokeColor=inherit;fillColor=none;align=center;whiteSpace=wrap;html=1;" vertex="1" parent="108">
                    <mxGeometry width="150" height="30" as="geometry">
                        <mxRectangle width="150" height="30" as="alternateBounds"/>
                    </mxGeometry>
                </mxCell>
                <mxCell id="110" style="shape=tableRow;horizontal=0;startSize=0;swimlaneHead=0;swimlaneBody=0;top=0;left=0;bottom=0;right=0;dropTarget=0;collapsible=0;recursiveResize=0;expand=0;fontStyle=0;fillColor=none;strokeColor=inherit;" vertex="1" parent="107">
                    <mxGeometry y="30" width="150" height="73" as="geometry"/>
                </mxCell>
                <mxCell id="111" value="&lt;div&gt;units: List[Unit]&lt;/div&gt;" style="connectable=0;recursiveResize=0;strokeColor=inherit;fillColor=none;align=left;whiteSpace=wrap;html=1;spacingLeft=5;" vertex="1" parent="110">
                    <mxGeometry width="150" height="73" as="geometry">
                        <mxRectangle width="150" height="73" as="alternateBounds"/>
                    </mxGeometry>
                </mxCell>
                <mxCell id="114" value="" style="childLayout=tableLayout;recursiveResize=0;shadow=0;fillColor=none;direction=west;spacingLeft=5;" vertex="1" parent="1">
                    <mxGeometry x="620" y="75.5" width="220" height="174" as="geometry"/>
                </mxCell>
                <mxCell id="115" style="shape=tableRow;horizontal=0;startSize=0;swimlaneHead=0;swimlaneBody=0;top=0;left=0;bottom=0;right=0;dropTarget=0;collapsible=0;recursiveResize=0;expand=0;fontStyle=0;fillColor=none;strokeColor=inherit;" vertex="1" parent="114">
                    <mxGeometry width="220" height="30" as="geometry"/>
                </mxCell>
                <mxCell id="116" value="ReplayBuffer" style="connectable=0;recursiveResize=0;strokeColor=inherit;fillColor=none;align=center;whiteSpace=wrap;html=1;" vertex="1" parent="115">
                    <mxGeometry width="220" height="30" as="geometry">
                        <mxRectangle width="220" height="30" as="alternateBounds"/>
                    </mxGeometry>
                </mxCell>
                <mxCell id="117" style="shape=tableRow;horizontal=0;startSize=0;swimlaneHead=0;swimlaneBody=0;top=0;left=0;bottom=0;right=0;dropTarget=0;collapsible=0;recursiveResize=0;expand=0;fontStyle=0;fillColor=none;strokeColor=inherit;" vertex="1" parent="114">
                    <mxGeometry y="30" width="220" height="81" as="geometry"/>
                </mxCell>
                <mxCell id="118" value="buffer: List[Transition]" style="connectable=0;recursiveResize=0;strokeColor=inherit;fillColor=none;align=left;whiteSpace=wrap;html=1;spacingLeft=5;" vertex="1" parent="117">
                    <mxGeometry width="220" height="81" as="geometry">
                        <mxRectangle width="220" height="81" as="alternateBounds"/>
                    </mxGeometry>
                </mxCell>
                <mxCell id="119" style="shape=tableRow;horizontal=0;startSize=0;swimlaneHead=0;swimlaneBody=0;top=0;left=0;bottom=0;right=0;dropTarget=0;collapsible=0;recursiveResize=0;expand=0;fontStyle=0;fillColor=none;strokeColor=inherit;" vertex="1" parent="114">
                    <mxGeometry y="111" width="220" height="63" as="geometry"/>
                </mxCell>
                <mxCell id="120" value="add()&lt;br&gt;update_new_state_and_reward()&lt;br&gt;sample()" style="connectable=0;recursiveResize=0;strokeColor=inherit;fillColor=none;align=left;whiteSpace=wrap;html=1;spacingLeft=5;" vertex="1" parent="119">
                    <mxGeometry width="220" height="63" as="geometry">
                        <mxRectangle width="220" height="63" as="alternateBounds"/>
                    </mxGeometry>
                </mxCell>
                <mxCell id="121" style="edgeStyle=orthogonalEdgeStyle;html=1;entryX=1;entryY=0.5;entryDx=0;entryDy=0;curved=1;endArrow=oval;endFill=1;exitX=0;exitY=0.5;exitDx=0;exitDy=0;" edge="1" parent="1" source="108" target="88">
                    <mxGeometry relative="1" as="geometry"/>
                </mxCell>
                <mxCell id="122" value="" style="childLayout=tableLayout;recursiveResize=0;shadow=0;fillColor=none;direction=west;spacingLeft=5;" vertex="1" parent="1">
                    <mxGeometry x="1105" y="290" width="170" height="230" as="geometry"/>
                </mxCell>
                <mxCell id="123" style="shape=tableRow;horizontal=0;startSize=0;swimlaneHead=0;swimlaneBody=0;top=0;left=0;bottom=0;right=0;dropTarget=0;collapsible=0;recursiveResize=0;expand=0;fontStyle=0;fillColor=none;strokeColor=inherit;" vertex="1" parent="122">
                    <mxGeometry width="170" height="52" as="geometry"/>
                </mxCell>
                <mxCell id="124" value="Unit" style="connectable=0;recursiveResize=0;strokeColor=inherit;fillColor=none;align=center;whiteSpace=wrap;html=1;" vertex="1" parent="123">
                    <mxGeometry width="170" height="52" as="geometry">
                        <mxRectangle width="170" height="52" as="alternateBounds"/>
                    </mxGeometry>
                </mxCell>
                <mxCell id="125" style="shape=tableRow;horizontal=0;startSize=0;swimlaneHead=0;swimlaneBody=0;top=0;left=0;bottom=0;right=0;dropTarget=0;collapsible=0;recursiveResize=0;expand=0;fontStyle=0;fillColor=none;strokeColor=inherit;" vertex="1" parent="122">
                    <mxGeometry y="52" width="170" height="128" as="geometry"/>
                </mxCell>
                <mxCell id="126" value="&lt;div&gt;category: str&lt;/div&gt;&lt;div&gt;mp: int&lt;/div&gt;&lt;div&gt;mp_base: int&lt;/div&gt;&lt;div&gt;hp: int&lt;/div&gt;&lt;div&gt;combat_strength_base: int&lt;/div&gt;&lt;div&gt;range_strength_base: int&lt;/div&gt;&lt;div&gt;range_radius_base: int&lt;/div&gt;&lt;div&gt;&lt;br&gt;&lt;/div&gt;" style="connectable=0;recursiveResize=0;strokeColor=inherit;fillColor=none;align=left;whiteSpace=wrap;html=1;spacingLeft=5;spacingTop=8;spacingBottom=5;spacing=0;" vertex="1" parent="125">
                    <mxGeometry width="170" height="128" as="geometry">
                        <mxRectangle width="170" height="128" as="alternateBounds"/>
                    </mxGeometry>
                </mxCell>
                <mxCell id="145" style="shape=tableRow;horizontal=0;startSize=0;swimlaneHead=0;swimlaneBody=0;top=0;left=0;bottom=0;right=0;dropTarget=0;collapsible=0;recursiveResize=0;expand=0;fontStyle=0;fillColor=none;strokeColor=inherit;" vertex="1" parent="122">
                    <mxGeometry y="180" width="170" height="50" as="geometry"/>
                </mxCell>
                <mxCell id="146" value="move(): List[Dict]" style="connectable=0;recursiveResize=0;strokeColor=inherit;fillColor=none;align=left;whiteSpace=wrap;html=1;spacingLeft=5;spacingTop=8;spacingBottom=5;spacing=0;" vertex="1" parent="145">
                    <mxGeometry width="170" height="50" as="geometry">
                        <mxRectangle width="170" height="50" as="alternateBounds"/>
                    </mxGeometry>
                </mxCell>
                <mxCell id="127" style="edgeStyle=orthogonalEdgeStyle;curved=1;html=1;endArrow=oval;endFill=1;exitX=0;exitY=0.5;exitDx=0;exitDy=0;" edge="1" parent="1" source="123" target="110">
                    <mxGeometry relative="1" as="geometry"/>
                </mxCell>
                <mxCell id="129" value="" style="childLayout=tableLayout;recursiveResize=0;shadow=0;fillColor=none;direction=west;spacingLeft=5;" vertex="1" parent="1">
                    <mxGeometry x="260" y="470" width="220" height="103" as="geometry"/>
                </mxCell>
                <mxCell id="130" style="shape=tableRow;horizontal=0;startSize=0;swimlaneHead=0;swimlaneBody=0;top=0;left=0;bottom=0;right=0;dropTarget=0;collapsible=0;recursiveResize=0;expand=0;fontStyle=0;fillColor=none;strokeColor=inherit;" vertex="1" parent="129">
                    <mxGeometry width="220" height="20" as="geometry"/>
                </mxCell>
                <mxCell id="131" value="SimpleAI" style="connectable=0;recursiveResize=0;strokeColor=inherit;fillColor=none;align=center;whiteSpace=wrap;html=1;" vertex="1" parent="130">
                    <mxGeometry width="220" height="20" as="geometry">
                        <mxRectangle width="220" height="20" as="alternateBounds"/>
                    </mxGeometry>
                </mxCell>
                <mxCell id="132" style="shape=tableRow;horizontal=0;startSize=0;swimlaneHead=0;swimlaneBody=0;top=0;left=0;bottom=0;right=0;dropTarget=0;collapsible=0;recursiveResize=0;expand=0;fontStyle=0;fillColor=none;strokeColor=inherit;" vertex="1" parent="129">
                    <mxGeometry y="20" width="220" height="20" as="geometry"/>
                </mxCell>
                <mxCell id="133" value="&lt;div style=&quot;border-color: var(--border-color);&quot;&gt;&lt;br&gt;&lt;/div&gt;" style="connectable=0;recursiveResize=0;strokeColor=inherit;fillColor=none;align=left;whiteSpace=wrap;html=1;spacingLeft=5;" vertex="1" parent="132">
                    <mxGeometry width="220" height="20" as="geometry">
                        <mxRectangle width="220" height="20" as="alternateBounds"/>
                    </mxGeometry>
                </mxCell>
                <mxCell id="134" style="shape=tableRow;horizontal=0;startSize=0;swimlaneHead=0;swimlaneBody=0;top=0;left=0;bottom=0;right=0;dropTarget=0;collapsible=0;recursiveResize=0;expand=0;fontStyle=0;fillColor=none;strokeColor=inherit;" vertex="1" parent="129">
                    <mxGeometry y="40" width="220" height="63" as="geometry"/>
                </mxCell>
                <mxCell id="135" value="create_paths() -&amp;gt; List[Dict]" style="connectable=0;recursiveResize=0;strokeColor=inherit;fillColor=none;align=left;whiteSpace=wrap;html=1;spacingLeft=5;" vertex="1" parent="134">
                    <mxGeometry width="220" height="63" as="geometry">
                        <mxRectangle width="220" height="63" as="alternateBounds"/>
                    </mxGeometry>
                </mxCell>
                <mxCell id="136" style="edgeStyle=orthogonalEdgeStyle;curved=1;html=1;entryX=0;entryY=0.5;entryDx=0;entryDy=0;" edge="1" parent="1" source="76" target="105">
                    <mxGeometry relative="1" as="geometry"/>
                </mxCell>
                <mxCell id="137" style="edgeStyle=orthogonalEdgeStyle;curved=1;html=1;entryX=0.5;entryY=0;entryDx=0;entryDy=0;" edge="1" parent="1" source="105" target="130">
                    <mxGeometry relative="1" as="geometry"/>
                </mxCell>
                <mxCell id="140" style="edgeStyle=orthogonalEdgeStyle;curved=1;html=1;endArrow=oval;endFill=1;entryX=1;entryY=0.75;entryDx=0;entryDy=0;" edge="1" parent="1" source="115" target="103">
                    <mxGeometry relative="1" as="geometry">
                        <mxPoint x="610" y="300" as="targetPoint"/>
                    </mxGeometry>
                </mxCell>
                <mxCell id="142" style="edgeStyle=orthogonalEdgeStyle;curved=1;html=1;entryX=0.5;entryY=1;entryDx=0;entryDy=0;endArrow=classic;endFill=1;" edge="1" parent="1" source="134" target="76">
                    <mxGeometry relative="1" as="geometry">
                        <Array as="points">
                            <mxPoint x="370" y="640"/>
                            <mxPoint x="140" y="640"/>
                        </Array>
                    </mxGeometry>
                </mxCell>
                <mxCell id="147" style="edgeStyle=orthogonalEdgeStyle;curved=1;html=1;entryX=1;entryY=0.75;entryDx=0;entryDy=0;endArrow=oval;endFill=1;" edge="1" parent="1" source="86" target="105">
                    <mxGeometry relative="1" as="geometry"/>
                </mxCell>
            </root>
        </mxGraphModel>
    </diagram>
</mxfile>